<?xml version="1.0" encoding="UTF-8" standalone="no"?>
<svg
    width="39.139332mm"
    height="20.254061mm"
    viewBox="0 0 147.92819 76.550777"
    preserveAspectRatio="xMidYMid"
    id="svg18"
    version="1.1"
    xmlns="http://www.w3.org/2000/svg"
    xmlns:svg="http://www.w3.org/2000/svg">
    <defs
        id="defs22"/>
    <path
        style="color:#000000;fill:#55565a;fill-opacity:1;stroke:#55565a;stroke-width:0.865512;stroke-linecap:round;stroke-dasharray:none;stroke-opacity:1"
        d="M 18.536772,45.051643 17.80842,44.238317 5.105952,30.067006 c -0.0307,-0.03369 -0.06182,-0.06563 -0.09225,-0.09954 l -0.0025,-0.0025 -1.115054,-1.443465 C 1.895085,25.578616 0.673197,21.886472 0.667786,18.299279 v -0.0025 C 0.667047,8.4410961 8.678554,0.43201606 18.534272,0.43275606 c 9.85472,6.77e-4 17.862368,8.00933804 17.861629,17.86405894 -0.0013,4.901778 -2.016662,9.590226 -5.574325,12.962244 l 0.05826,-0.0607 z m -0.0048,-2.927976 10.918003,-12.253316 0.02914,-0.0267 C 32.648916,26.839199 34.445202,22.664298 34.44642,18.296837 34.44708,9.4961691 27.335015,2.3829421 18.534347,2.3823351 9.732782,2.3816761 2.616759,9.4952701 2.617419,18.296837 c 0.0057,3.755965 1.339436,7.387951 3.765583,10.2552 l 0.29134,0.344754 z"
        id="path304"/>
    <path
        d="m 29.0303,17.841283 -5.535478,-1.951982 v -2.719185 l 8.361486,3.54465 v 2.291882 l -8.361486,3.544648 v -2.719182 z"
        style="font-weight:bold;font-size:16px;font-family:Roboto;-inkscape-font-specification:'Roboto Bold';text-align:center;text-anchor:middle;fill:#f2d082;fill-opacity:1;stroke-width:1.08021;stroke-linecap:round"
        id="path306"/>
    <path
        d="m 20.299783,10.625739 h 2.087942 l -5.20529,15.353669 H 15.09449 Z"
        style="font-weight:bold;font-size:16px;font-family:Roboto;-inkscape-font-specification:'Roboto Bold';text-align:center;text-anchor:middle;fill:#f98f00;fill-opacity:1;stroke-width:1.08021;stroke-linecap:round"
        id="path308"/>
    <path
        d="m 8.024617,17.870419 5.642303,1.971406 v 2.699759 L 5.208321,18.996937 v -2.282171 l 8.458599,-3.554361 v 2.709472 z"
        style="font-weight:bold;font-size:16px;font-family:Roboto;-inkscape-font-specification:'Roboto Bold';text-align:center;text-anchor:middle;fill:#55565a;fill-opacity:1;stroke-width:1.08021;stroke-linecap:round"
        id="path310"/>
    <path
        d="m 39.527907,49.562927 h -2.788604 v 2.437586 h 2.788604 v 12.40244 c 0,3.93914 0.897027,5.772205 5.557698,5.772205 0.682518,0 1.365047,-0.078 1.657556,-0.136511 v -2.359586 c -0.292509,0.03901 -0.585018,0.03901 -0.936027,0.03901 -2.593595,0 -3.412623,-0.624023 -3.412623,-3.139612 V 52.00051 h 4.17314 v -2.437583 h -4.17314 v -5.128682 h -2.866604 z"
        style="font-weight:bold;font-size:16px;font-family:'San Francisco Display';-inkscape-font-specification:'San Francisco Display Bold';text-align:center;text-anchor:middle;fill:#f98f00;fill-opacity:1;stroke-width:3.91637;stroke-linecap:round"
        id="path314"/>
    <path
        d="m 0.390015,55.159625 c 0,3.646629 3.100612,4.75817 6.942247,5.596697 3.003105,0.624022 5.226185,1.09204 5.226185,3.510124 0,1.93057 -1.599056,3.451625 -4.855671,3.451625 -2.983607,0 -4.621667,-1.423552 -4.894675,-3.295618 H 0 c 0,3.510124 3.003106,5.752705 7.468767,5.752705 4.641165,0 7.93678,-2.20358 7.93678,-6.240221 0,-4.017142 -3.315117,-4.972677 -7.11775,-5.674702 -2.47659,-0.487517 -5.07018,-1.053038 -5.07018,-3.412622 0,-2.184078 1.891565,-3.295616 4.446157,-3.295616 3.39312,0 4.426656,1.96957 4.52416,3.568626 h 2.710595 c 0,-3.198113 -2.301081,-6.025714 -7.11775,-6.025714 -3.88064,0 -7.390764,1.872067 -7.390764,6.064716 z"
        style="font-weight:bold;font-size:16px;font-family:'San Francisco Display';-inkscape-font-specification:'San Francisco Display Bold';text-align:center;text-anchor:middle;fill:#f98f00;fill-opacity:1;stroke-width:3.91637;stroke-linecap:round"
        id="path316"/>
    <path
        style="font-weight:bold;font-size:16px;font-family:'San Francisco Display';-inkscape-font-specification:'San Francisco Display Bold';text-align:center;text-anchor:middle;fill:#f98f00;fill-opacity:1;stroke-width:3.91637;stroke-linecap:round"
        d="m 17.024108,69.843645 h 2.8666 V 49.42642 h -2.8666 z"
        id="path318"/>
    <path
        d="m 21.879779,55.159625 c 0,3.646629 3.10061,4.75817 6.942242,5.596697 3.003113,0.624022 5.226188,1.09204 5.226188,3.510124 0,1.93057 -1.599057,3.451625 -4.855669,3.451625 -2.983603,0 -4.621671,-1.423552 -4.894677,-3.295618 h -2.808099 c 0,3.510124 3.003107,5.752705 7.468767,5.752705 4.64117,0 7.936781,-2.20358 7.936781,-6.240221 0,-4.017142 -3.315122,-4.972677 -7.117754,-5.674702 -2.476583,-0.487517 -5.070179,-1.053038 -5.070179,-3.412622 0,-2.184078 1.891567,-3.295616 4.446162,-3.295616 3.393122,0 4.426649,1.96957 4.52416,3.568626 h 2.710594 c 0,-3.198113 -2.301086,-6.025714 -7.117755,-6.025714 -3.880642,0 -7.390761,1.872067 -7.390761,6.064716 z"
        style="font-weight:bold;font-size:16px;font-family:'San Francisco Display';-inkscape-font-specification:'San Francisco Display Bold';text-align:center;text-anchor:middle;fill:#f98f00;fill-opacity:1;stroke-width:3.91637;stroke-linecap:round"
        id="path320"/>
    <path
        d="m 55.459971,70.175158 c 4.426661,0 7.078755,-2.476589 7.839272,-5.752705 h -2.905592 c -0.643529,1.950069 -2.262086,3.276116 -4.836179,3.276116 -3.549123,0 -5.616199,-2.788597 -5.616199,-6.942247 V 60.34681 h 13.650491 v -1.794064 c 0,-5.674702 -3.042114,-9.457837 -8.268291,-9.457837 -5.3042,0 -8.268303,3.822135 -8.268303,9.223829 v 2.340082 c 0,5.772205 3.159113,9.516338 8.404801,9.516338 z M 49.941273,57.870221 v -0.05851 c 0,-3.529626 2.106075,-6.240222 5.3822,-6.240222 3.237112,0 5.382188,2.691096 5.382188,6.240222 v 0.05851 z"
        style="font-weight:bold;font-size:16px;font-family:'San Francisco Display';-inkscape-font-specification:'San Francisco Display Bold';text-align:center;text-anchor:middle;fill:#f98f00;fill-opacity:1;stroke-width:3.91637;stroke-linecap:round"
        id="path322"/>
    <path
        d="m 65.307819,69.843645 h 2.866605 V 56.797683 c 0,-3.178612 2.008576,-5.070181 4.738673,-5.070181 2.9251,0 4.66065,1.813565 4.66065,5.070181 v 13.045962 h 2.86661 V 56.797683 c 0,-2.886101 1.69657,-5.070181 4.79717,-5.070181 3.04211,0 4.62167,2.008573 4.62167,4.758171 v 13.357972 h 2.8666 V 55.959153 c 0,-4.251152 -2.59359,-6.864244 -6.86424,-6.864244 -3.39313,0 -5.5187,1.618557 -6.27923,3.37362 h -0.11699 c -0.79952,-2.028072 -2.7106,-3.37362 -5.94771,-3.37362 -2.74959,0 -4.543661,1.482053 -5.206678,2.886102 H 68.174426 V 49.42642 h -2.866604 z"
        style="font-weight:bold;font-size:16px;font-family:'San Francisco Display';-inkscape-font-specification:'San Francisco Display Bold';text-align:center;text-anchor:middle;fill:#f98f00;fill-opacity:1;stroke-width:3.91637;stroke-linecap:round"
        id="path324"/>
    <path
        d="m 106.72729,67.191551 h 0.078 v 2.652094 h 2.78859 V 55.647143 c 0,-4.19265 -3.0811,-6.552234 -7.33225,-6.552234 -4.738673,0 -7.176273,2.476587 -7.410273,6.025714 h 2.7106 c 0.23401,-2.164576 1.77456,-3.549127 4.582663,-3.549127 2.9056,0 4.58265,1.540556 4.58265,4.407159 v 2.203577 h -5.55769 c -4.660663,0.01947 -7.117753,2.281581 -7.117753,5.811206 0,3.744132 2.7106,6.18172 6.669243,6.18172 3.12011,0 5.03119,-1.34555 6.0062,-2.983607 z m -5.32369,0.507018 c -2.301073,0 -4.387653,-1.228542 -4.387653,-3.763632 0,-1.989071 1.26755,-3.412623 4.251163,-3.412623 h 5.46018 v 2.51559 c 0,2.749597 -2.28158,4.660665 -5.32369,4.660665 z"
        style="font-weight:bold;font-size:16px;font-family:'San Francisco Display';-inkscape-font-specification:'San Francisco Display Bold';text-align:center;text-anchor:middle;fill:#f98f00;fill-opacity:1;stroke-width:3.91637;stroke-linecap:round"
        id="path326"/>
    <path
        d="m 128.55016,71.731754 q 0,-0.0255 0.10203,-0.152985 0.12751,-0.152984 0.25498,-0.356965 0.15298,-0.203979 0.25497,-0.433456 0.10204,-0.254976 0.10204,-0.50995 -0.0255,-0.178482 -0.20399,-0.30597 -0.15298,-0.127481 -0.38246,-0.254974 -0.22948,-0.127495 -0.50995,-0.30597 -0.28047,-0.178483 -0.53545,-0.433457 h -0.76491 q -0.051,0.40796 -0.12751,0.764924 -0.051,0.356965 -0.051,0.71393 0,0.254974 0.051,0.484451 0.051,0.203979 0.17848,0.458955 0.17849,0.280472 0.38246,0.790421 0.20399,0.50995 0.20399,0.943406 0,0.280472 -0.15299,0.458955 -0.1275,0.152984 -0.53545,0.152984 -0.43346,-0.05099 -0.76493,-0.280472 -0.33146,-0.254974 -0.56094,-0.611939 -0.22947,-0.356965 -0.35697,-0.790421 -0.10203,-0.458955 -0.10203,-0.892412 0,-0.30597 0.051,-0.586442 0.051,-0.280472 0.10203,-0.586441 0.051,-0.331467 0.10204,-0.739427 0.051,-0.40796 0.051,-0.968904 -0.15299,0.0255 -0.33147,0.0255 -0.15298,0 -0.28048,0 -0.86691,0 -1.45335,-0.254975 -0.56094,-0.254974 -1.04539,-0.841417 -0.25498,-0.30597 -0.50995,-0.713928 -0.25498,-0.40796 -0.53545,-0.790422 -0.25498,-0.40796 -0.56095,-0.790421 -0.28047,-0.382462 -0.61194,-0.662934 -0.051,0.0255 -0.051,0.229477 0,0.178481 -0.0255,0.331467 0,0.203979 -0.051,0.305969 -0.051,0.101993 -0.051,0.178482 0,0.05099 0.0764,0.152985 0.10203,0.07649 0.15298,0.07649 l 0.12751,1.427857 q 0,0.790422 -0.20397,1.478854 -0.17849,0.688432 -0.17849,1.453355 0,0.40796 0.0255,0.790422 0.051,0.382463 0.10203,0.790421 0.051,0.280473 0.17849,0.841417 0.15298,0.535447 0.15298,1.019899 0,0.356965 -0.12751,0.611939 -0.12751,0.229477 -0.48445,0.229477 -0.28048,0 -0.48445,-0.305969 -0.20399,-0.331467 -0.35697,-0.764925 -0.15298,-0.458953 -0.25497,-0.943406 -0.0766,-0.484451 -0.10204,-0.841416 0,-0.203981 0,-0.560944 0.0255,-0.356965 0.0255,-0.713929 0.0255,-0.356965 0.0255,-0.637437 0.0255,-0.30597 0.0255,-0.433457 -0.43346,0 -0.76493,0.356964 -0.30596,0.331467 -0.30596,1.427859 0,1.045395 0.15298,2.090792 0.17848,1.019899 0.17848,1.988803 0,0.254974 -0.0764,0.509948 -0.051,0.280474 -0.15298,0.50995 -0.10204,0.229477 -0.25498,0.382463 -0.15298,0.152984 -0.33147,0.152984 -0.20398,0 -0.43346,-0.203979 -0.22947,-0.20398 -0.40796,-0.509951 -0.17848,-0.305969 -0.30596,-0.662934 -0.10203,-0.356963 -0.10203,-0.68843 0,-0.331467 0.051,-0.739427 0.051,-0.433458 0.1275,-0.81592 0.0766,-0.382461 0.12751,-0.662934 0.0766,-0.280472 0.12751,-0.382461 0.0255,-0.07649 0.0764,-0.356965 0.051,-0.305969 0.0766,-0.611939 0.0255,-0.331467 0.051,-0.61194 0.0255,-0.280472 0.0255,-0.356964 0,-0.127494 -0.0255,-0.382462 -0.0255,-0.280472 -0.0764,-0.586442 -0.0255,-0.30597 -0.0764,-0.586442 -0.0255,-0.280472 -0.051,-0.407959 -0.35697,-0.203981 -0.73942,-0.40796 -0.38247,-0.229477 -0.61195,-0.611939 -0.15298,-0.254974 -0.22947,-0.535448 -0.0764,-0.280472 -0.12751,-0.509948 -0.051,-0.254975 -0.0766,-0.40796 -0.0255,-0.152984 -0.051,-0.152984 V 50.849326 q 0.0255,-0.05099 0.051,-0.254974 0.0255,-0.203981 0.051,-0.433458 0.051,-0.229477 0.12751,-0.433457 0.10203,-0.203979 0.22947,-0.254975 l 0.71394,-0.05099 q 0.84142,-0.07649 1.50435,-0.127481 0.68843,-0.05099 1.32587,-0.07649 0.66294,-0.05099 1.32587,-0.07649 0.68842,-0.0255 1.55534,-0.0255 h 2.52425 q 0.25497,0.382462 0.66293,0.50995 0.40796,0.127482 0.84142,0.20398 0.45896,0.07649 0.89241,0.178481 0.45896,0.07649 0.81593,0.382462 0.0255,0.0255 0.0255,0.05099 0.0255,0.0255 0.0764,0.05099 0.17848,0.178482 0.50995,0.484452 0.35697,0.305969 0.71394,0.637436 0.35695,0.331468 0.63743,0.637438 0.30596,0.280472 0.43346,0.407959 0.15298,0.178483 0.25498,0.560945 0.1275,0.356964 0.20397,0.790421 0.0764,0.40796 0.10203,0.790422 0.051,0.356965 0.051,0.535447 0,0.509948 -0.10203,0.892411 -0.10203,0.382462 -0.25498,0.764924 -0.12751,0.356965 -0.30598,0.739427 -0.15298,0.356965 -0.28046,0.815919 -0.051,0.178483 -0.10203,0.611939 -0.051,0.407959 -0.051,1.529849 0,0.535446 -0.17849,0.841416 -0.15298,0.280472 -0.68843,0.280472 -0.20399,0 -0.35697,-0.127482 -0.12751,-0.152984 -0.22948,-0.305969 -0.0764,-0.178482 -0.17848,-0.30597 -0.0766,-0.152984 -0.17849,-0.152984 -0.0255,0 -0.1275,0.178482 -0.10204,0.178483 -0.28048,0.331467 -0.17848,0.178483 -0.38246,0.280472 -0.17848,0.101993 -0.22947,0.152985 0.051,0.229477 0.12751,0.458955 0.0765,0.229477 0.20398,0.484452 0.20397,0.40796 0.68842,0.815919 0.48447,0.382461 0.79043,0.815919 0.33147,0.433457 0.48445,0.866913 0.15299,0.433458 0.50995,0.81592 0.56095,0.662934 1.01991,1.172883 0.48445,0.484453 0.76491,0.994401 0.17849,0.356965 0.25498,0.688432 0.0764,0.331467 0.12751,0.662934 0.051,0.30597 0.10203,0.662935 0.0766,0.356964 0.20398,0.739427 0,0.0255 0.0764,0.127481 0.0764,0.101993 0.15298,0.229478 0.10203,0.101993 0.15298,0.203979 0.0764,0.101993 0.0764,0.127482 0,0.0255 -0.051,0.101993 -0.051,0.05099 -0.12751,0.254975 -0.0764,0.20398 -0.17848,0.611939 -0.0766,0.382461 -0.15299,1.019898 -0.051,0.280473 -0.0764,0.688432 0,0.382462 -0.0766,0.764924 -0.051,0.40796 -0.22947,0.764925 -0.15299,0.382461 -0.48445,0.611939 -0.40796,-0.152985 -0.76493,-0.356965 -0.33147,-0.178483 -0.58644,-0.586441 -0.22948,-0.40796 -0.38246,-1.096392 -0.12751,-0.713929 -0.12751,-1.886812 z m -8.49065,-14.457066 q 0,0.178484 0.0764,0.535447 0.10204,0.331467 0.15299,0.382462 0.0764,0.0255 0.15298,0.0255 h 0.22947 q 0.48447,0 1.01991,-0.101993 0.56094,-0.127481 1.0199,-0.382461 0.48445,-0.254976 0.81592,-0.662934 0.35697,-0.40796 0.43346,-1.019899 0,-0.203981 -0.153,-0.433458 -0.12751,-0.254974 -0.40796,-0.433457 -0.25497,-0.203979 -0.61193,-0.331466 -0.35697,-0.127481 -0.76493,-0.127481 0.22948,0.305969 0.22948,0.739427 0,0.509949 -0.22948,0.866913 -0.20397,0.331467 -0.61194,0.331467 -0.17847,0 -0.35696,-0.178483 -0.15298,-0.178481 -0.28047,-0.713928 -0.0766,-0.40796 -0.0766,-0.611939 0.0255,-0.20398 -0.25498,-0.280473 -0.1275,0.05099 -0.20397,0.40796 -0.0764,0.356964 -0.12751,0.790422 -0.0255,0.433456 -0.051,0.790421 0,0.356964 0,0.407959 z"
        style="font-weight:bold;font-size:16px;font-family:'Pieces NFI';-inkscape-font-specification:'Pieces NFI Bold';text-align:center;text-anchor:middle;fill:#f2d082;fill-opacity:1;stroke:none;stroke-width:2.50035;stroke-linecap:round"
        id="path330"/>
    <path
        d="m 142.95624,67.601163 q -0.28046,0.30597 -0.40796,0.739427 -0.10203,0.40796 -0.10203,0.841416 0,0.305971 0.0255,0.611941 0.051,0.305969 0.10203,0.611939 -0.051,0.203979 -0.22947,0.382462 -0.17849,0.152984 -0.33147,0.152984 -0.25498,0 -0.40796,-0.203979 -0.12751,-0.229478 -0.22949,-0.484453 -0.0764,-0.280472 -0.15298,-0.484451 -0.0764,-0.229478 -0.17848,-0.229478 -0.30597,0 -0.40796,0.586443 -0.10204,0.586441 -0.10204,1.274873 0,0.662934 0.25497,1.274873 0.25497,0.586442 0.25497,1.223879 0,0.305969 -0.10203,0.739427 -0.10203,0.433456 -0.28048,0.841416 -0.15298,0.433457 -0.40796,0.713929 -0.25497,0.30597 -0.56094,0.30597 -0.35697,0 -0.56095,-0.30597 -0.17847,-0.280472 -0.28047,-0.662934 -0.10203,-0.356965 -0.1275,-0.71393 -0.0255,-0.356964 -0.0255,-0.509949 l 0.9689,-4.564047 q 0,-0.280472 -0.20399,-0.433457 -0.17847,-0.178482 -0.8414,-0.30597 -0.25498,-0.05099 -0.43346,-0.152985 -0.17848,-0.101993 -0.38247,-0.280472 -0.30597,-1.580843 -0.45895,-3.212681 -0.12751,-1.631838 -0.20398,-3.263676 -0.051,-1.657336 -0.10204,-3.314671 -0.0255,-1.657335 -0.12751,-3.289173 -0.0255,-0.127494 -0.0255,-0.20398 0,-0.07649 0,-0.152984 0,-0.127482 -0.0255,-0.254976 -0.0255,-0.127481 -0.17848,-0.331467 -0.0764,0.127481 -0.20399,0.535447 -0.1275,0.382463 -0.30596,0.790421 -0.17849,0.40796 -0.40796,0.739427 -0.20397,0.30597 -0.48445,0.30597 -0.33147,-0.07649 -0.43346,-0.382462 -0.10203,-0.30597 -0.17848,-0.637437 -0.051,-0.356965 -0.12751,-0.611939 -0.0764,-0.280472 -0.33147,-0.280472 -0.15298,0 -0.20398,0.40796 -0.051,0.382462 -0.15299,0.866913 -0.0764,0.458955 -0.25497,0.866914 -0.15299,0.382462 -0.50995,0.382462 -0.28047,0 -0.50994,-0.254975 -0.22949,-0.280471 -0.30598,-0.586441 v -1.427859 q 0,-0.127481 0,-0.331467 0,-0.229477 0,-0.458954 0.0255,-0.229478 0.0255,-0.407959 0,-0.178483 0,-0.229477 0.0255,-0.356965 0.051,-0.892413 0.0255,-0.560944 0.051,-1.096391 0.051,-0.535447 0.0766,-0.917908 0.051,-0.40796 0.051,-0.433458 l 0.68844,-1.147386 q 0,-0.0255 0.50995,-0.05099 0.53544,-0.0255 1.35135,-0.05099 0.81594,-0.0255 1.83582,-0.05099 1.01991,-0.05099 2.0653,-0.05099 1.0454,-0.0255 1.9888,-0.0255 0.96891,-0.0255 1.65734,-0.0255 0.25497,0 0.94341,0.0255 0.68843,0.0255 1.45335,0.07649 0.76493,0.0255 1.45336,0.07649 0.68842,0.05099 0.9689,0.07649 0.17849,0.331467 0.28048,0.61194 0.10203,0.280472 0.12751,0.586442 0.051,0.280471 0.051,0.637436 0.0255,0.331467 0.0255,0.739427 0,0.433456 -0.0764,0.968904 -0.051,0.535447 -0.12751,0.943407 -0.12751,0.407958 -0.22949,0.713928 -0.0764,0.280473 -0.0764,0.637437 0.0255,0.40796 0.10203,0.994401 0.10203,0.586443 0.15298,0.764925 -0.051,0.254974 -0.38246,0.331467 -0.33146,0.05099 -0.45896,0.05099 -0.43344,0 -0.58643,-0.229477 -0.1275,-0.229478 -0.17848,-0.535448 -0.051,-0.30597 -0.12751,-0.611939 -0.0764,-0.30597 -0.33147,-0.458954 -0.35695,-0.178483 -0.56094,-0.178483 -0.20398,0 -0.33146,-0.101993 -0.25498,-0.178481 -0.38246,-0.458953 -0.10203,-0.30597 -0.56096,-0.662935 -0.28046,0.356965 -0.40795,0.841416 -0.10204,0.458955 -0.15299,0.994402 -0.051,0.50995 -0.0764,1.019899 0,0.50995 -0.0255,0.943406 0,0.07649 -0.051,0.382462 -0.0255,0.30597 -0.051,1.019899 -0.0255,0.688432 -0.051,1.91231 -0.0255,1.223878 -0.0255,3.136188 z"
        style="font-weight:bold;font-size:16px;font-family:'Pieces NFI';-inkscape-font-specification:'Pieces NFI Bold';text-align:center;text-anchor:middle;fill:#f2d082;fill-opacity:1;stroke:none;stroke-width:2.50035;stroke-linecap:round"
        id="path332"/>
</svg>
