<?xml version="1.0" encoding="UTF-8" standalone="no"?>
<svg
    width="34.302395mm"
    height="9.8173046mm"
    viewBox="0 0 129.64685 37.104772"
    preserveAspectRatio="xMidYMid"
    id="svg18"
    xmlns="http://www.w3.org/2000/svg"
>
    <defs
        id="defs22"/>
    <path
        d="m 34.642924,13.452177 h -2.44398 v 2.136342 h 2.44398 v 10.869707 c 0,3.452329 0.78617,5.058858 4.87086,5.058858 0.59817,0 1.19635,-0.06836 1.45271,-0.11964 v -2.067981 c -0.25636,0.03419 -0.51272,0.03419 -0.82035,0.03419 -2.27307,0 -2.99088,-0.546904 -2.99088,-2.751608 V 15.588519 h 3.65741 v -2.136342 h -3.65741 V 8.9573138 h -2.51234 z"
        style="font-weight:bold;font-size:16px;font-family:'San Francisco Display';-inkscape-font-specification:'San Francisco Display Bold';text-align:center;text-anchor:middle;fill:#b1b1b1;fill-opacity:1;stroke-width:3.43237;stroke-linecap:round"
        id="path6254"/>
    <path
        d="m 0.341815,18.357218 c 0,3.195967 2.717428,4.17014 6.084302,4.90504 2.631973,0.546903 4.580317,0.957081 4.580317,3.076332 0,1.691984 -1.40144,3.025062 -4.255592,3.025062 -2.614884,0 -4.050506,-1.247625 -4.289776,-2.888336 H 0 c 0,3.076333 2.631973,5.041768 6.545753,5.041768 4.067595,0 6.955928,-1.931254 6.955928,-5.469035 0,-3.520691 -2.905425,-4.358138 -6.238117,-4.973405 -2.170525,-0.427267 -4.443591,-0.922899 -4.443591,-2.990878 0,-1.914163 1.6578,-2.888334 3.896687,-2.888334 2.973788,0 3.879596,1.726164 3.965051,3.127604 h 2.375611 c 0,-2.80288 -2.016707,-5.281037 -6.238117,-5.281037 -3.401058,0 -6.47739,1.64071 -6.47739,5.315219 z"
        style="font-weight:bold;font-size:16px;font-family:'San Francisco Display';-inkscape-font-specification:'San Francisco Display Bold';text-align:center;text-anchor:middle;fill:#b1b1b1;fill-opacity:1;stroke-width:3.43237;stroke-linecap:round"
        id="path6248"/>
    <path
        style="font-weight:bold;font-size:16px;font-family:'San Francisco Display';-inkscape-font-specification:'San Francisco Display Bold';text-align:center;text-anchor:middle;fill:#b1b1b1;fill-opacity:1;stroke-width:3.43237;stroke-linecap:round"
        d="m 14.920214,31.226541 h 2.512337 v -17.894 h -2.512337 z"
        id="path6250"/>
    <path
        d="m 19.175806,18.357218 c 0,3.195967 2.717428,4.17014 6.084298,4.90504 2.63198,0.546903 4.58032,0.957081 4.58032,3.076332 0,1.691984 -1.40144,3.025062 -4.25559,3.025062 -2.61488,0 -4.05051,-1.247625 -4.289777,-2.888336 h -2.461066 c 0,3.076333 2.631973,5.041768 6.545753,5.041768 4.0676,0 6.95593,-1.931254 6.95593,-5.469035 0,-3.520691 -2.90543,-4.358138 -6.23812,-4.973405 -2.17052,-0.427267 -4.44359,-0.922899 -4.44359,-2.990878 0,-1.914163 1.6578,-2.888334 3.89669,-2.888334 2.97379,0 3.87959,1.726164 3.96505,3.127604 h 2.37561 c 0,-2.80288 -2.01671,-5.281037 -6.23812,-5.281037 -3.40106,0 -6.477388,1.64071 -6.477388,5.315219 z"
        style="font-weight:bold;font-size:16px;font-family:'San Francisco Display';-inkscape-font-specification:'San Francisco Display Bold';text-align:center;text-anchor:middle;fill:#b1b1b1;fill-opacity:1;stroke-width:3.43237;stroke-linecap:round"
        id="path6252"/>
    <path
        d="m 48.606054,31.517084 c 3.8796,0 6.20394,-2.170524 6.87047,-5.041768 h -2.54651 c -0.564,1.709074 -1.98253,2.871244 -4.23851,2.871244 -3.11051,0 -4.92213,-2.443974 -4.92213,-6.084302 v -0.358904 h 11.96352 v -1.572347 c 0,-4.973405 -2.66616,-8.289008 -7.24647,-8.289008 -4.64869,0 -7.24648,3.349784 -7.24648,8.083919 v 2.050887 c 0,5.058858 2.7687,8.340279 7.36611,8.340279 z M 43.769374,20.73283 v -0.05128 c 0,-3.093424 1.8458,-5.469036 4.71705,-5.469036 2.83706,0 4.71704,2.358521 4.71704,5.469036 v 0.05128 z"
        style="font-weight:bold;font-size:16px;font-family:'San Francisco Display';-inkscape-font-specification:'San Francisco Display Bold';text-align:center;text-anchor:middle;fill:#b1b1b1;fill-opacity:1;stroke-width:3.43237;stroke-linecap:round"
        id="path6256"/>
    <path
        d="m 57.236874,31.226541 h 2.51234 V 19.79284 c 0,-2.78579 1.76035,-4.443592 4.15305,-4.443592 2.563609,0 4.084679,1.589439 4.084679,4.443592 v 11.433701 h 2.51234 V 19.79284 c 0,-2.529429 1.4869,-4.443592 4.20432,-4.443592 2.66616,0 4.05051,1.760346 4.05051,4.17014 v 11.707153 h 2.51234 V 19.057938 c 0,-3.725781 -2.27307,-6.015939 -6.01594,-6.015939 -2.97379,0 -4.83668,1.418531 -5.50322,2.956697 h -0.10253 c -0.70072,-1.777436 -2.37562,-2.956697 -5.212679,-2.956697 -2.40979,0 -3.98214,1.298896 -4.56322,2.529429 h -0.11965 v -2.238887 h -2.51234 z"
        style="font-weight:bold;font-size:16px;font-family:'San Francisco Display';-inkscape-font-specification:'San Francisco Display Bold';text-align:center;text-anchor:middle;fill:#b1b1b1;fill-opacity:1;stroke-width:3.43237;stroke-linecap:round"
        id="path6258"/>
    <path
        d="m 93.537593,28.902201 h 0.0684 v 2.32434 h 2.44397 V 18.784486 c 0,-3.674508 -2.70033,-5.742487 -6.42611,-5.742487 -4.15305,0 -6.2894,2.170523 -6.49448,5.281037 h 2.37561 c 0.20509,-1.897071 1.55525,-3.110514 4.01632,-3.110514 2.54652,0 4.01632,1.350168 4.01632,3.862507 v 1.931253 h -4.87086 c -4.08468,0.01706 -6.23811,1.999616 -6.23811,5.093038 0,3.281421 2.37561,5.417764 5.84503,5.417764 2.73452,0 4.40941,-1.179262 5.26394,-2.614883 z m -4.66577,0.444359 c -2.0167,0 -3.84541,-1.076715 -3.84541,-3.298511 0,-1.743255 1.1109,-2.99088 3.72578,-2.99088 h 4.7854 v 2.204706 c 0,2.409793 -1.99961,4.084685 -4.66577,4.084685 z"
        style="font-weight:bold;font-size:16px;font-family:'San Francisco Display';-inkscape-font-specification:'San Francisco Display Bold';text-align:center;text-anchor:middle;fill:#b1b1b1;fill-opacity:1;stroke-width:3.43237;stroke-linecap:round"
        id="path6260"/>
    <path
        d="m 112.66352,32.881309 q 0,-0.02235 0.0894,-0.134078 0.11173,-0.134079 0.22346,-0.31285 0.13408,-0.178771 0.22347,-0.379889 0.0894,-0.223464 0.0894,-0.446928 -0.0223,-0.156425 -0.17877,-0.268157 -0.13408,-0.111732 -0.33519,-0.223464 -0.20112,-0.111732 -0.44693,-0.268157 -0.24581,-0.156425 -0.46928,-0.379889 h -0.67039 q -0.0447,0.357543 -0.11173,0.670392 -0.0447,0.31285 -0.0447,0.6257 0,0.223464 0.0447,0.424582 0.0447,0.178771 0.15642,0.402235 0.15643,0.245811 0.3352,0.692739 0.17877,0.446928 0.17877,0.826817 0,0.245811 -0.13408,0.402235 -0.11173,0.134079 -0.46927,0.134079 -0.37989,-0.04469 -0.6704,-0.245811 -0.2905,-0.223464 -0.49162,-0.536314 -0.20111,-0.312849 -0.31285,-0.692738 -0.0894,-0.402236 -0.0894,-0.782125 0,-0.268157 0.0447,-0.513967 0.0447,-0.245811 0.0894,-0.513968 0.0447,-0.290503 0.0894,-0.648045 0.0447,-0.357543 0.0447,-0.849164 -0.13408,0.02235 -0.29051,0.02235 -0.13408,0 -0.24581,0 -0.75978,0 -1.27374,-0.223464 -0.49163,-0.223464 -0.91621,-0.737431 -0.22346,-0.268157 -0.44693,-0.6257 -0.22346,-0.357542 -0.46927,-0.692739 -0.22346,-0.357542 -0.49162,-0.692738 -0.24581,-0.335197 -0.53631,-0.581007 -0.0447,0.02235 -0.0447,0.201118 0,0.156424 -0.0223,0.290503 0,0.178771 -0.0447,0.268157 -0.0447,0.08939 -0.0447,0.156425 0,0.04469 0.067,0.134078 0.0894,0.06704 0.13408,0.06704 l 0.11173,1.2514 q 0,0.692738 -0.17877,1.296091 -0.15643,0.603353 -0.15643,1.273746 0,0.357542 0.0223,0.692739 0.0447,0.335196 0.0894,0.692738 0.0447,0.245811 0.15642,0.737432 0.13408,0.469274 0.13408,0.893856 0,0.31285 -0.11173,0.536314 -0.11173,0.201118 -0.42458,0.201118 -0.24581,0 -0.42459,-0.268157 -0.17877,-0.290503 -0.31285,-0.670392 -0.13407,-0.402236 -0.22346,-0.826818 -0.067,-0.424581 -0.0894,-0.737431 0,-0.178771 0,-0.491621 0.0224,-0.31285 0.0224,-0.6257 0.0223,-0.31285 0.0223,-0.55866 0.0223,-0.268157 0.0223,-0.379889 -0.37989,0 -0.67039,0.31285 -0.26816,0.290503 -0.26816,1.251399 0,0.916203 0.13408,1.832405 0.15643,0.893857 0.15643,1.743021 0,0.223464 -0.067,0.446928 -0.0447,0.24581 -0.13408,0.446928 -0.0894,0.201118 -0.22346,0.335196 -0.13408,0.134079 -0.29051,0.134079 -0.17877,0 -0.37989,-0.178772 -0.20111,-0.178771 -0.35754,-0.446928 -0.15642,-0.268157 -0.26816,-0.581007 -0.0894,-0.312849 -0.0894,-0.603353 0,-0.290503 0.0447,-0.648046 0.0447,-0.379889 0.11173,-0.715085 0.067,-0.335196 0.11174,-0.581006 0.067,-0.245811 0.11173,-0.335197 0.0223,-0.06704 0.067,-0.312849 0.0447,-0.268157 0.067,-0.536314 0.0223,-0.290504 0.0447,-0.536314 0.0223,-0.245811 0.0223,-0.31285 0,-0.111732 -0.0223,-0.335196 -0.0224,-0.245811 -0.067,-0.513967 -0.0223,-0.268157 -0.067,-0.513968 -0.0223,-0.24581 -0.0447,-0.357543 -0.31285,-0.178771 -0.64805,-0.357542 -0.33519,-0.201118 -0.53631,-0.536314 -0.13408,-0.223464 -0.20112,-0.469275 -0.067,-0.24581 -0.11173,-0.446928 -0.0447,-0.223464 -0.067,-0.357542 -0.0224,-0.134079 -0.0447,-0.134079 V 14.579599 q 0.0223,-0.04469 0.0447,-0.223464 0.0223,-0.178772 0.0447,-0.379889 0.0447,-0.201118 0.11173,-0.379889 0.0894,-0.178772 0.20112,-0.223465 l 0.6257,-0.04469 q 0.73743,-0.06704 1.31844,-0.111732 0.60335,-0.04469 1.16201,-0.06704 0.58101,-0.04469 1.16202,-0.06704 0.60335,-0.02235 1.36313,-0.02235 h 2.21229 q 0.22347,0.335196 0.58101,0.446928 0.35754,0.111732 0.73743,0.178771 0.40224,0.06704 0.78212,0.156425 0.40224,0.06704 0.71509,0.335196 0.0224,0.02235 0.0224,0.04469 0.0223,0.02235 0.067,0.04469 0.15643,0.156425 0.44693,0.424582 0.31285,0.268157 0.6257,0.55866 0.31285,0.290503 0.55866,0.55866 0.26816,0.245811 0.37989,0.357543 0.13408,0.156425 0.22347,0.491621 0.11173,0.31285 0.17877,0.692739 0.067,0.357542 0.0894,0.692738 0.0447,0.31285 0.0447,0.469275 0,0.446928 -0.0894,0.782124 -0.0894,0.335197 -0.22346,0.670393 -0.11174,0.312849 -0.26816,0.648046 -0.13408,0.312849 -0.24581,0.715085 -0.0447,0.156425 -0.0894,0.536314 -0.0447,0.357542 -0.0447,1.340784 0,0.469275 -0.15642,0.737432 -0.13408,0.24581 -0.60336,0.24581 -0.17877,0 -0.31285,-0.111732 -0.11173,-0.134078 -0.20112,-0.268157 -0.067,-0.156424 -0.15642,-0.268156 -0.067,-0.134079 -0.15643,-0.134079 -0.0223,0 -0.11173,0.156425 -0.0894,0.156425 -0.24581,0.290503 -0.15642,0.156425 -0.33519,0.245811 -0.15643,0.08939 -0.20112,0.134078 0.0447,0.201118 0.11173,0.402236 0.067,0.201117 0.17877,0.424581 0.17877,0.357543 0.60335,0.715086 0.42459,0.335196 0.69274,0.715085 0.29051,0.379889 0.42459,0.759778 0.13407,0.379889 0.44692,0.715085 0.49162,0.581007 0.89386,1.027935 0.42458,0.424582 0.67039,0.87151 0.15643,0.31285 0.22347,0.603353 0.067,0.290503 0.11173,0.581007 0.0447,0.268157 0.0894,0.581006 0.067,0.31285 0.17878,0.648046 0,0.02235 0.067,0.111732 0.067,0.08939 0.13408,0.201118 0.0894,0.08939 0.13408,0.178771 0.067,0.08939 0.067,0.111732 0,0.02235 -0.0447,0.08939 -0.0447,0.04469 -0.11173,0.223464 -0.067,0.178771 -0.15643,0.536314 -0.067,0.335196 -0.13408,0.893856 -0.0447,0.245811 -0.067,0.603354 0,0.335196 -0.067,0.670392 -0.0447,0.357542 -0.20111,0.670392 -0.13408,0.335196 -0.42459,0.536314 -0.35754,-0.134078 -0.67039,-0.31285 -0.2905,-0.156425 -0.51397,-0.513967 -0.20111,-0.357543 -0.33519,-0.960896 -0.11173,-0.625699 -0.11173,-1.653634 z m -7.44135,-12.670415 q 0,0.156425 0.067,0.469275 0.0894,0.290503 0.13408,0.335196 0.067,0.02235 0.13407,0.02235 h 0.20112 q 0.42458,0 0.89386,-0.08939 0.49162,-0.111732 0.89385,-0.335196 0.42459,-0.223464 0.71509,-0.581007 0.31285,-0.357543 0.37989,-0.893856 0,-0.178772 -0.13408,-0.379889 -0.11173,-0.223465 -0.35754,-0.379889 -0.22347,-0.178772 -0.53632,-0.290504 -0.31285,-0.111732 -0.67039,-0.111732 0.20112,0.268157 0.20112,0.648046 0,0.446928 -0.20112,0.759778 -0.17877,0.290503 -0.53631,0.290503 -0.15643,0 -0.31285,-0.156425 -0.13408,-0.156424 -0.24581,-0.625699 -0.067,-0.357543 -0.067,-0.536314 0.0223,-0.178771 -0.22347,-0.24581 -0.11173,0.04469 -0.17877,0.357542 -0.067,0.31285 -0.11173,0.692739 -0.0224,0.379889 -0.0447,0.692739 0,0.312849 0,0.357542 z"
        style="font-weight:bold;font-size:16px;font-family:'Pieces NFI';-inkscape-font-specification:'Pieces NFI Bold';text-align:center;text-anchor:middle;fill:#b1b1b1;fill-opacity:1;stroke:none;stroke-width:2.19134;stroke-linecap:round"
        id="path6263"/>
    <path
        d="m 125.28926,29.261191 q -0.24581,0.268157 -0.35755,0.648046 -0.0894,0.357542 -0.0894,0.737431 0,0.268157 0.0223,0.536314 0.0447,0.268157 0.0894,0.536314 -0.0447,0.178771 -0.20112,0.335196 -0.15642,0.134079 -0.2905,0.134079 -0.22346,0 -0.35754,-0.178772 -0.11174,-0.201117 -0.20112,-0.424581 -0.067,-0.245811 -0.13408,-0.424582 -0.067,-0.201118 -0.15642,-0.201118 -0.26816,0 -0.35755,0.513967 -0.0894,0.513968 -0.0894,1.117321 0,0.581007 0.22346,1.117321 0.22347,0.513967 0.22347,1.072627 0,0.268157 -0.0894,0.648046 -0.0894,0.379889 -0.24581,0.737432 -0.13408,0.379889 -0.35754,0.625699 -0.22347,0.268157 -0.49162,0.268157 -0.31285,0 -0.49163,-0.268157 -0.15642,-0.24581 -0.24581,-0.581006 -0.0894,-0.31285 -0.11173,-0.6257 -0.0223,-0.31285 -0.0223,-0.446928 l 0.84916,-4.000008 q 0,-0.24581 -0.17877,-0.379889 -0.15643,-0.156425 -0.73743,-0.268157 -0.22347,-0.04469 -0.37989,-0.134078 -0.15643,-0.08939 -0.3352,-0.245811 -0.26816,-1.385477 -0.40223,-2.815647 -0.11174,-1.430171 -0.17878,-2.860341 -0.0447,-1.452517 -0.0894,-2.905033 -0.0224,-1.452517 -0.11173,-2.882688 -0.0223,-0.111732 -0.0223,-0.178771 0,-0.06704 0,-0.134078 0,-0.111732 -0.0223,-0.223464 -0.0223,-0.111732 -0.15642,-0.290504 -0.067,0.111732 -0.17877,0.469275 -0.11173,0.335196 -0.26816,0.692739 -0.15642,0.357542 -0.35754,0.648046 -0.17877,0.268156 -0.42458,0.268156 -0.29051,-0.06704 -0.37989,-0.335196 -0.0894,-0.268157 -0.15643,-0.55866 -0.0447,-0.31285 -0.11173,-0.536314 -0.067,-0.24581 -0.2905,-0.24581 -0.13408,0 -0.17877,0.357542 -0.0447,0.335196 -0.13408,0.759778 -0.067,0.402236 -0.22347,0.759778 -0.13407,0.335196 -0.44692,0.335196 -0.24582,0 -0.44693,-0.223464 -0.20112,-0.24581 -0.26816,-0.513967 v -1.251399 q 0,-0.111732 0,-0.290504 0,-0.201117 0,-0.402235 0.0224,-0.201118 0.0224,-0.357543 0,-0.156424 0,-0.201117 0.0223,-0.31285 0.0447,-0.782125 0.0224,-0.491621 0.0447,-0.960895 0.0447,-0.469275 0.067,-0.804471 0.0447,-0.357543 0.0447,-0.379889 l 0.60336,-1.005589 q 0,-0.02235 0.44693,-0.04469 0.46927,-0.02235 1.18436,-0.04469 0.71508,-0.02235 1.60894,-0.04469 0.89385,-0.04469 1.81006,-0.04469 0.9162,-0.02235 1.74302,-0.02235 0.84916,-0.02235 1.45251,-0.02235 0.22347,0 0.82682,0.02235 0.60335,0.02235 1.27375,0.06704 0.67039,0.02235 1.27374,0.06704 0.60335,0.04469 0.84916,0.06704 0.15643,0.290504 0.24582,0.536314 0.0894,0.245811 0.11173,0.513968 0.0447,0.24581 0.0447,0.55866 0.0223,0.290503 0.0223,0.648046 0,0.379889 -0.067,0.849164 -0.0447,0.469274 -0.11173,0.826817 -0.11174,0.357542 -0.20112,0.625699 -0.067,0.245811 -0.067,0.558661 0.0223,0.357542 0.0894,0.87151 0.0894,0.513967 0.13408,0.670392 -0.0447,0.223464 -0.33519,0.290503 -0.29051,0.04469 -0.40224,0.04469 -0.37989,0 -0.51397,-0.201118 -0.11173,-0.201117 -0.15642,-0.469274 -0.0447,-0.268157 -0.11173,-0.536314 -0.067,-0.268157 -0.29051,-0.402236 -0.31285,-0.156424 -0.49162,-0.156424 -0.17877,0 -0.2905,-0.08939 -0.22347,-0.156425 -0.3352,-0.402235 -0.0894,-0.268157 -0.49162,-0.581007 -0.24581,0.31285 -0.35754,0.737431 -0.0894,0.402236 -0.13408,0.87151 -0.0447,0.446929 -0.067,0.893857 0,0.446928 -0.0223,0.826817 0,0.06704 -0.0447,0.335196 -0.0223,0.268157 -0.0447,0.893857 -0.0223,0.603353 -0.0447,1.675981 -0.0224,1.072627 -0.0224,2.748608 z"
        style="font-weight:bold;font-size:16px;font-family:'Pieces NFI';-inkscape-font-specification:'Pieces NFI Bold';text-align:center;text-anchor:middle;fill:#b1b1b1;fill-opacity:1;stroke:none;stroke-width:2.19134;stroke-linecap:round"
        id="path6265"/>
    <path
        id="circle6515"
        style="opacity:1;fill:#b1b1b1;fill-opacity:1;stroke:none;stroke-width:2.02704;stroke-linecap:round;stroke-dasharray:none;stroke-dashoffset:0;stroke-opacity:1"
        d="M 16.175882,1.7256043e-7 A 5.5591569,5.5591569 0 0 0 10.617288,5.5585941 5.5591569,5.5591569 0 0 0 16.175882,11.117188 5.5591569,5.5591569 0 0 0 21.736424,5.5585941 5.5591569,5.5591569 0 0 0 16.175882,1.7256043e-7 Z m 0,2.77929692743957 a 2.7795784,2.7795784 0 0 1 2.779296,2.779297 2.7795784,2.7795784 0 0 1 -2.779296,2.7792967 2.7795784,2.7795784 0 0 1 -2.779297,-2.7792967 2.7795784,2.7795784 0 0 1 2.779297,-2.779297 z"/>
</svg>
