<?xml version="1.0" encoding="UTF-8" standalone="no"?>
<svg
    data-name="Layer 1"
    width="853.29742"
    height="818"
    viewBox="0 0 853.29744 818"
    version="1.1"
    id="svg90"
    xmlns:xlink="http://www.w3.org/1999/xlink"
    xmlns="http://www.w3.org/2000/svg"
    xmlns:svg="http://www.w3.org/2000/svg">
    <defs
        id="defs8">
        <linearGradient
            id="fe5e6308-1e89-4ce8-8c8d-e7ed4a72d158-37"
            x1="689.87054"
            y1="396.55768"
            x2="776.68054"
            y2="396.55768"
            gradientUnits="userSpaceOnUse">
            <stop
                offset="0"
                stop-color="#fff"
                id="stop2"/>
            <stop
                offset="1"
                stop-color="#fff"
                stop-opacity="0.3"
                id="stop4"/>
        </linearGradient>
        <linearGradient
            id="b0adbdce-87b5-465c-b00c-1cf2f5493111-38"
            x1="631.27386"
            y1="535.45361"
            x2="718.0838"
            y2="535.45361"
            xlink:href="#fe5e6308-1e89-4ce8-8c8d-e7ed4a72d158-37"
            gradientTransform="translate(-173.35128,-40.999998)"/>
        <linearGradient
            xlink:href="#fe5e6308-1e89-4ce8-8c8d-e7ed4a72d158-37"
            id="linearGradient501"
            gradientUnits="userSpaceOnUse"
            x1="689.87054"
            y1="396.55768"
            x2="776.68054"
            y2="396.55768"
            gradientTransform="translate(-173.35128,-40.999998)"/>
    </defs>
    <path
        d="M 707.50121,464.2494 C 599.78419,627.24287 549.12172,818 353.75061,818 158.3795,818 0,659.62046 0,464.2494 0,268.87834 176.53511,192.74549 353.75061,110.49879 929.35672,-156.64322 948.52362,99.543002 707.50121,464.2494 Z"
        fill="#3f3d56"
        id="path10"/>
    <g
        id="luna">
        <circle
            cx="669.52185"
            cy="94.221916"
            r="66.192596"
            fill="#e6e6e6"
            id="circle12"/>
        <circle
            cx="663.01111"
            cy="48.64669"
            r="7.59587"
            fill="#cbcbcb"
            id="circle14"/>
        <circle
            cx="676.03259"
            cy="124.60541"
            r="7.59587"
            fill="#cbcbcb"
            id="circle16"/>
        <circle
            cx="705.33093"
            cy="82.285553"
            r="5.4256201"
            fill="#cbcbcb"
            id="circle18"/>
        <circle
            cx="643.47888"
            cy="99.647537"
            r="17.36199"
            fill="#cbcbcb"
            id="circle20"/>
    </g>
    <circle
        cx="441.64569"
        cy="196.22363"
        r="10.85125"
        fill="#6c63ff"
        id="circle22"/>
    <circle
        cx="732.45905"
        cy="224.43687"
        r="10.85125"
        fill="#6c63ff"
        id="circle24"/>
    <circle
        cx="603.32922"
        cy="245.05424"
        r="6.5107498"
        fill="#e6e6e6"
        id="circle26"/>
    <circle
        cx="102.00171"
        cy="450.14279"
        r="6.5107498"
        fill="#e6e6e6"
        id="circle28"/>
    <circle
        cx="487.22092"
        cy="624.84784"
        r="6.5107498"
        fill="#e6e6e6"
        id="circle30"/>
    <g
        id="stars">
        <polygon
            points="589.188,449.041 591.354,446.889 588.126,443.639 591.376,440.412 589.224,438.245 585.975,441.473 582.747,438.223 580.581,440.375 583.808,443.625 580.558,446.852 582.71,449.019 585.96,445.791 "
            fill="#6c63ff"
            id="polygon32"/>
        <polygon
            points="158.393,555.383 160.56,553.231 157.332,549.982 160.582,546.754 158.43,544.588 155.18,547.815 151.953,544.565 149.786,546.717 153.014,549.967 149.764,553.194 151.916,555.361 155.165,552.133 "
            fill="#e6e6e6"
            id="polygon34"/>
        <polygon
            points="184.436,366.571 186.603,364.42 183.375,361.17 186.625,357.942 184.473,355.776 181.223,359.003 177.996,355.754 175.829,357.905 179.057,361.155 175.807,364.383 177.959,366.549 181.208,363.322 "
            fill="#e6e6e6"
            id="polygon36"/>
        <polygon
            points="751.956,165.823 754.123,163.672 750.895,160.422 754.145,157.194 751.993,155.028 748.743,158.255 745.516,155.006 743.349,157.157 746.577,160.407 743.327,163.635 745.479,165.801 748.729,162.574 "
            fill="#e6e6e6"
            id="polygon38"/>
        <polygon
            points="494.806,250.487 498.055,247.26 495.904,245.093 492.654,248.321 489.426,245.071 487.26,247.223 490.487,250.472 487.238,253.7 489.389,255.867 492.639,252.639 495.867,255.889 498.033,253.737 "
            fill="#e6e6e6"
            id="polygon40"/>
    </g>
    <path
        d="m 518.44206,405.99143 32.97058,-38.59855 32.97057,-38.59855 18.61242,-21.7895 c 1.02981,-1.2056 -0.55938,-3.08643 -1.58915,-1.88088 l -32.97057,38.59855 -32.97057,38.59855 -18.61242,21.78951 c -1.02982,1.2056 0.55937,3.08642 1.58914,1.88087 z"
        opacity="0.8"
        fill="url(#fe5e6308-1e89-4ce8-8c8d-e7ed4a72d158-37)"
        id="path42"
        style="fill:url(#linearGradient501)"/>
    <path
        d="m 459.84534,544.88737 32.97057,-38.59855 32.97057,-38.59855 18.61242,-21.7895 c 1.02981,-1.2056 -0.55937,-3.08643 -1.58915,-1.88087 l -32.97057,38.59855 -32.97057,38.59855 -18.61242,21.7895 c -1.02981,1.2056 0.55937,3.08643 1.58915,1.88087 z"
        opacity="0.8"
        fill="url(#b0adbdce-87b5-465c-b00c-1cf2f5493111-38)"
        id="path44"
        style="fill:url(#b0adbdce-87b5-465c-b00c-1cf2f5493111-38)"/>
    <g
        id="astro">
        <path
            d="m 293.52619,331.32164 h 61.8521 v 24.33858 a 15.811,15.811 0 0 1 -15.811,15.811 h -30.23007 a 15.811,15.811 0 0 1 -15.811,-15.811 v -24.33858 z"
            fill="#2f2e41"
            id="path46"/>
        <path
            d="m 549.34694,695.68875 c -14.0849,14.27061 -28.19145,14.366 -42.31946,0.46 L 496.17584,600.19781 488.58,696.34927 c -14.11847,11.42686 -27.27574,12.96547 -39.06448,0.42461 -11.24565,-83.07535 -17.35815,-160.2537 -7.59587,-219.19516 l -20.61737,-83.55459 46.66036,-21.70249 c 9.39634,23.24307 -5.42324,35.1313 28.08839,34.73339 33.21631,-0.39441 30.73557,-12.88943 29.42321,-34.73339 l 42.92319,16.50892 a 15.38272,15.38272 0 0 1 9.14663,18.98963 l -21.68633,68.6734 c 8.34867,34.66687 -0.22337,131.10079 -6.51079,219.19516 z"
            fill="#e6e6e6"
            id="path48"
            transform="translate(-173.35128,-41)"/>
        <path
            d="m 484.23947,779.24335 c 0,0 -34.64058,3.03439 -39.281,1.12362 v 0 q -0.43935,-0.18092 -0.85525,-0.39352 c -6.89625,-3.52114 -7.10638,-13.3821 -0.66091,-17.67309 l 13.66907,-9.1 -11.93638,-64.02236 46.1178,0.54256 z"
            fill="#2f2e41"
            id="path50"
            transform="translate(-173.35128,-41)"/>
        <path
            d="m 510.28246,779.78591 c 0,0 34.64057,3.03439 39.281,1.12363 v 0 q 0.43935,-0.18092 0.85525,-0.39352 c 6.89625,-3.52114 7.10638,-13.3821 0.66091,-17.67309 l -13.66907,-9.1 16.81945,-64.02236 h -48.288 z"
            fill="#2f2e41"
            id="path52"
            transform="translate(-173.35128,-41)"/>
        <path
            d="m 428.89811,551.36719 6.86638,27.46551 a 16.55029,16.55029 0 0 1 -7.20087,17.996 v 0 A 16.55029,16.55029 0 0 1 403.25394,584.62556 L 401.77,570.89943 396.34438,440.44419 a 54.87781,54.87781 0 0 1 33.85878,-50.69295 l 10.63132,-4.40811 z"
            fill="#e6e6e6"
            id="path54"
            transform="translate(-173.35128,-41)"/>
        <path
            d="m 601.43292,439.3606 -0.0326,0.77046 -4.38388,105.30046 -0.84636,20.34609 -0.16279,4.0367 -1.48662,13.72678 a 16.55048,16.55048 0 1 1 -32.51036,-5.79453 l 6.86886,-27.4645 -0.15193,-2.04 -0.91147,-12.76107 -10.87297,-151.22299 10.63421,4.4056 a 54.9579,54.9579 0 0 1 33.8559,50.697 z"
            fill="#e6e6e6"
            id="path56"
            transform="translate(-173.35128,-41)"/>
        <path
            d="m 500.57674,559.19089 c -39.41736,0 -63.732,-13.67 -64.07587,-13.86818 l 1.0846,-1.8799 c 0.48428,0.27976 49.24918,27.63359 120.8939,3.923 l 0.68244,2.06 a 185.89809,185.89809 0 0 1 -58.58507,9.76508 z"
            fill="#2f2e41"
            id="path58"
            transform="translate(-173.35128,-41)"/>
        <path
            d="m 461.5451,659.23535 c -8.67463,-19.51846 -8.71861,-104.3521 -8.716,-107.954 l 2.17025,0.002 c -5.3e-4,0.87743 0.0403,87.97033 8.52946,107.07022 z"
            fill="#2f2e41"
            id="path60"
            transform="translate(-173.35128,-41)"/>
        <path
            d="m 466.05727,660.11066 c -7.72727,0 -12.86148,-1.6457 -16.20852,-3.533 -6.09428,-3.43658 -7.35161,-8.11936 -7.40194,-8.31646 l 2.10242,-0.53832 -1.05121,0.26916 1.04962,-0.27446 c 0.044,0.16425 1.14129,4.06286 6.46307,7.02364 5.85956,3.25855 17.65446,5.69054 40.55865,-1.2356 l 0.62733,2.077 c -10.96145,3.31469 -19.50575,4.52804 -26.13942,4.52804 z"
            fill="#2f2e41"
            id="path62"
            transform="translate(-173.35128,-41)"/>
        <rect
            x="448.66696"
            y="382.62543"
            width="2.1707201"
            height="170.16399"
            transform="rotate(-2.80385,-474.57877,3988.8779)"
            fill="#2f2e41"
            id="rect64"/>
        <path
            d="m 535.14707,659.23535 -1.98375,-0.88166 c 8.4892,-19.09989 8.53052,-106.19279 8.52946,-107.07022 l 2.17025,-0.002 c 0.002,3.6019 -0.0413,88.43554 -8.71596,107.954 z"
            fill="#2f2e41"
            id="path66"
            transform="translate(-173.35128,-41)"/>
        <path
            d="m 530.6349,660.11066 c -6.63367,0 -15.17585,-1.21229 -26.13942,-4.52807 l 0.62734,-2.077 c 22.90418,6.92508 34.69643,4.49521 40.55865,1.2356 5.32177,-2.96078 6.41855,-6.85939 6.462,-7.02364 l 2.10137,0.54362 c -0.0509,0.1971 -1.30766,4.87988 -7.40195,8.31646 -3.34651,1.88737 -8.48284,3.53303 -16.20799,3.53303 z"
            fill="#2f2e41"
            id="path68"
            transform="translate(-173.35128,-41)"/>
        <rect
            x="461.85785"
            y="466.62207"
            width="170.16399"
            height="2.1707201"
            transform="rotate(-87.20185,438.73775,538.22287)"
            fill="#2f2e41"
            id="rect70"/>
        <polygon
            points="355.248,367.131 339.101,391.003 304.377,391.003 292.767,367.131 297.867,367.131 306.548,386.663 335.846,386.663 349.953,367.131 "
            fill="#6c63ff"
            id="polygon72"/>
        <polygon
            points="394.443,380.152 394.443,379.067 394.725,379.631 "
            id="polygon74"/>
        <path
            d="m 603.60317,439.3606 -0.0326,0.77046 -20.58478,5.97905 -12.73935,-25.47877 13.03236,-23.8944 a 54.80994,54.80994 0 0 1 20.32436,42.62366 z"
            fill="#6c63ff"
            id="path76"
            transform="translate(-173.35128,-41)"/>
        <path
            d="m 395.00956,439.3606 0.0326,0.77046 20.58478,5.97905 12.73935,-25.47877 -13.03236,-23.8944 a 54.80994,54.80994 0 0 0 -20.32436,42.62366 z"
            fill="#6c63ff"
            id="path78"
            transform="translate(-173.35128,-41)"/>
        <circle
            cx="324.45224"
            cy="291.7146"
            r="57.5116"
            fill="#e6e6e6"
            id="circle80"/>
        <circle
            cx="324.45224"
            cy="299.31046"
            r="42.319859"
            fill="#2f2e41"
            id="circle82"/>
        <polygon
            points="394.849,507.242 393.9,494.481 424.284,504.432 423.403,524.778 395.571,509.825 "
            fill="#6c63ff"
            id="polygon84"/>
        <polygon
            points="257.263,507.242 258.26,494.481 226.324,504.432 227.25,524.778 256.503,509.825 "
            fill="#6c63ff"
            id="polygon86"/>
        <polygon
            points="363.075,353.628 368.301,337.605 370.366,338.277 364.958,354.718 339.678,392.089 303.698,392.089 283.777,351.139 282.753,336.41 284.918,336.26 285.913,350.568 305.057,389.918 338.525,389.918 "
            fill="#2f2e41"
            id="polygon88"/>
    </g>
</svg>
