<?xml version="1.0" encoding="UTF-8" standalone="no"?>
<svg
    id="Capa_1"
    x="0px"
    y="0px"
    width="48"
    height="48"
    viewBox="0 0 48 48"
    xml:space="preserve"
    xmlns="http://www.w3.org/2000/svg"
>
    <defs id="defs9"/>
    <g
        id="g4"
        style="fill:#ffffff;fill-opacity:1"
        transform="matrix(0.09375,0,0,0.09375,0,1.4667969e-5)">
        <path
            d="M 448,64 H 64 C 28.656,64 0,92.656 0,128 v 256 c 0,35.344 28.656,64 64,64 h 384 c 35.344,0 64,-28.656 64,-64 V 128 C 512,92.656 483.344,64 448,64 Z M 342.656,234.781 478.125,118.687 c 0.938,3 1.875,6 1.875,9.313 v 256 c 0,2.219 -0.844,4.188 -1.281,6.281 z M 448,96 c 2.125,0 4,0.813 6,1.219 L 256,266.938 58,97.219 C 60,96.813 61.875,96 64,96 Z M 33.266,390.25 C 32.828,388.156 32,386.219 32,384 V 128 c 0,-3.313 0.953,-6.313 1.891,-9.313 L 169.313,234.75 Z M 64,416 c -3.234,0 -6.172,-0.938 -9.125,-1.844 l 138.75,-158.563 51.969,44.531 c 2.984,2.595 6.703,3.876 10.406,3.876 3.703,0 7.422,-1.281 10.406,-3.875 l 51.969,-44.531 138.75,158.563 C 454.188,415.062 451.25,416 448,416 Z"
            id="path2"
            style="fill:#ffffff;fill-opacity:1"/>
    </g>
</svg>
