<?xml version="1.0" ?>

<svg xmlns="http://www.w3.org/2000/svg"
     width="100%" height="100%" viewBox="0 0 64 64" version="1.1" xml:space="preserve"
     style="fill-rule:evenodd;clip-rule:evenodd;stroke-linejoin:round;stroke-miterlimit:2;">
    <g>
        <path
            d="M63,30.963C63,17.177 51.824,6 38.037,6L25.963,6C12.176,6 1,17.177 1,30.963L1,
            56C1,57.105 1.895,58 3,58L38.037,58C51.824,58 63,46.823 63,33.037L63,30.963ZM30,
            22L30,48C30,49.104 30.896,50 32,50C33.104,50 34,49.104 34,48L34,22C34,
            20.896 33.104,20 32,20C30.896,20 30,20.896 30,22ZM32,14C33.104,14 34,14.896 34,
            16C34,17.104 33.104,18 32,18C30.896,18 30,17.104 30,16C30,14.896 30.896,14 32,14Z"/>
    </g>
</svg>
