<?xml version="1.0" encoding="UTF-8" standalone="no"?>
<svg
    width="13mm"
    height="13mm"
    viewBox="0 0 49.133858 49.133857"
    preserveAspectRatio="xMidYMid"
    id="svg18"
    version="1.1"
    xmlns="http://www.w3.org/2000/svg"
    xmlns:svg="http://www.w3.org/2000/svg">
    <defs
        id="defs22"/>
    <rect
        style="fill:#ffffff;fill-opacity:1;stroke-width:1.58568;stroke-linecap:round"
        id="rect344"
        width="49.133858"
        height="49.133858"
        x="0"
        y="0"
        ry="7.876307"/>
    <path
        style="color:#000000;fill:#2e3349;stroke-width:1.08943;stroke-linecap:round;-inkscape-stroke:none"
        d="M 24.57124,44.119319 23.9329,43.406506 12.800244,30.98653 c -0.02691,-0.02952 -0.05418,-0.05751 -0.08086,-0.08724 l -0.0022,-0.0022 -0.977254,-1.265077 C 9.9861925,27.052812 8.9153103,23.816955 8.9105679,20.673078 v -0.0022 C 8.9099197,12.033182 15.93134,5.0138902 24.569057,5.0145384 33.2059,5.0151322 40.223938,12.034057 40.22329,20.6709 c -0.0012,4.296001 -1.767437,8.405037 -4.885432,11.36033 l 0.05106,-0.0532 z m -0.0042,-2.566128 9.568722,-10.739013 0.02554,-0.0234 C 36.939368,28.157625 38.513664,24.498671 38.514731,20.670955 38.515309,12.957902 32.282175,6.7237485 24.569122,6.7232179 16.855281,6.7226394 10.618679,12.957114 10.619257,20.670955 c 0.005,3.291791 1.173905,6.474925 3.30022,8.987831 l 0.255336,0.302148 z"
        id="path6106"/>
    <path
        d="m 33.767945,20.2717 -4.851386,-1.710751 v -2.383138 l 7.328147,3.10659 v 2.008644 l -7.328147,3.10659 v -2.383137 z"
        style="font-weight:bold;font-size:16px;font-family:Roboto;-inkscape-font-specification:'Roboto Bold';text-align:center;text-anchor:middle;fill:#f2d082;fill-opacity:1;stroke-width:0.946718;stroke-linecap:round"
        id="path10941"/>
    <path
        d="m 26.116373,13.947876 h 1.829908 L 23.384276,27.40409 h -1.829909 z"
        style="font-weight:bold;font-size:16px;font-family:Roboto;-inkscape-font-specification:'Roboto Bold';text-align:center;text-anchor:middle;fill:#f98f00;fill-opacity:1;stroke-width:0.946718;stroke-linecap:round"
        id="path10943"/>
    <path
        d="m 15.35821,20.297234 4.945009,1.727775 v 2.366114 L 12.889961,21.284534 V 19.284401 L 20.303219,16.1693 v 2.374626 z"
        style="font-weight:bold;font-size:16px;font-family:Roboto;-inkscape-font-specification:'Roboto Bold';text-align:center;text-anchor:middle;fill:#55565a;fill-opacity:1;stroke-width:0.946718;stroke-linecap:round"
        id="path10945"/>
</svg>
