<?xml version="1.0" encoding="UTF-8" standalone="no"?>
<svg
    width="43.317921mm"
    height="10.346474mm"
    viewBox="0 0 163.72128 39.104781"
    preserveAspectRatio="xMidYMid"
    id="svg18"
    version="1.1"
    xmlns="http://www.w3.org/2000/svg"
    xmlns:svg="http://www.w3.org/2000/svg">
    <defs
        id="defs22"/>
    <path
        style="color:#000000;fill:#2e3349;stroke-width:1.08943;stroke-linecap:round;-inkscape-stroke:none"
        d="M 15.660672,39.104781 15.022332,38.391968 3.8896756,25.971992 c -0.026909,-0.02952 -0.054178,-0.05751 -0.080858,-0.08724 l -0.00218,-0.0022 -0.977253,-1.265077 C 1.0756246,22.038274 0.00474235,18.802417 4.00134e-8,15.65854 v -0.0022 C -6.4817334e-4,7.0186439 7.0207716,-6.4819409e-4 15.658489,1.925576e-8 24.295332,5.9376089e-4 31.31337,7.0195187 31.312722,15.656362 c -0.0012,4.296001 -1.767437,8.405037 -4.885432,11.36033 l 0.05106,-0.0532 z m -0.0042,-2.566128 9.568722,-10.739013 0.02554,-0.0234 C 28.0288,23.143087 29.603096,19.484133 29.604163,15.656417 29.604741,7.9433635 23.371607,1.7092101 15.658554,1.7086795 7.9447131,1.708101 1.7081108,7.9425758 1.7086893,15.656417 c 0.00501,3.291791 1.1739046,6.474925 3.3002198,8.987831 l 0.2553361,0.302148 z"
        id="path6106"/>
    <g
        id="g310">
        <path
            d="m 24.857377,15.257162 -4.851386,-1.710751 v -2.383138 l 7.328147,3.10659 v 2.008644 l -7.328147,3.10659 V 17.00196 Z"
            style="font-weight:bold;font-size:16px;font-family:Roboto;-inkscape-font-specification:'Roboto Bold';text-align:center;text-anchor:middle;fill:#f2d082;fill-opacity:1;stroke-width:0.946718;stroke-linecap:round"
            id="path10941"/>
        <path
            d="m 17.205805,8.9333378 h 1.829908 L 14.473708,22.389552 h -1.829909 z"
            style="font-weight:bold;font-size:16px;font-family:Roboto;-inkscape-font-specification:'Roboto Bold';text-align:center;text-anchor:middle;fill:#f98f00;fill-opacity:1;stroke-width:0.946718;stroke-linecap:round"
            id="path10943"/>
        <path
            d="m 6.447642,15.282696 4.945009,1.727775 v 2.366114 L 3.9793927,16.269996 v -2.000133 l 7.4132583,-3.115101 v 2.374626 z"
            style="font-weight:bold;font-size:16px;font-family:Roboto;-inkscape-font-specification:'Roboto Bold';text-align:center;text-anchor:middle;fill:#55565a;fill-opacity:1;stroke-width:0.946718;stroke-linecap:round"
            id="path10945"/>
    </g>
    <g
        id="g319">
        <path
            d="m 68.717421,15.452177 h -2.44398 v 2.136342 h 2.44398 v 10.869707 c 0,3.452329 0.78617,5.058858 4.87086,5.058858 0.59817,0 1.19635,-0.06836 1.45271,-0.11964 v -2.067981 c -0.25636,0.03419 -0.51272,0.03419 -0.82035,0.03419 -2.27307,0 -2.99088,-0.546904 -2.99088,-2.751608 V 17.588519 h 3.65741 v -2.136342 h -3.65741 v -4.494863 h -2.51234 z"
            style="font-weight:bold;font-size:16px;font-family:'San Francisco Display';-inkscape-font-specification:'San Francisco Display Bold';text-align:center;text-anchor:middle;fill:#55565a;stroke-width:3.43237;stroke-linecap:round"
            id="path6254"/>
        <path
            d="m 34.416312,20.357218 c 0,3.195967 2.717428,4.17014 6.084302,4.90504 2.631973,0.546903 4.580317,0.957081 4.580317,3.076332 0,1.691984 -1.40144,3.025062 -4.255592,3.025062 -2.614884,0 -4.050506,-1.247625 -4.289776,-2.888336 h -2.461066 c 0,3.076333 2.631973,5.041768 6.545753,5.041768 4.067595,0 6.955928,-1.931254 6.955928,-5.469035 0,-3.520691 -2.905425,-4.358138 -6.238117,-4.973405 -2.170525,-0.427267 -4.443591,-0.922899 -4.443591,-2.990878 0,-1.914163 1.6578,-2.888334 3.896687,-2.888334 2.973788,0 3.879596,1.726164 3.965051,3.127604 h 2.375611 c 0,-2.80288 -2.016707,-5.281037 -6.238117,-5.281037 -3.401058,0 -6.47739,1.64071 -6.47739,5.315219 z"
            style="font-weight:bold;font-size:16px;font-family:'San Francisco Display';-inkscape-font-specification:'San Francisco Display Bold';text-align:center;text-anchor:middle;fill:#55565a;stroke-width:3.43237;stroke-linecap:round"
            id="path6248"/>
        <path
            style="font-weight:bold;font-size:16px;font-family:'San Francisco Display';-inkscape-font-specification:'San Francisco Display Bold';text-align:center;text-anchor:middle;fill:#55565a;stroke-width:3.43237;stroke-linecap:round"
            d="m 48.994711,33.226541 h 2.512337 v -17.894 h -2.512337 z"
            id="path6250"/>
        <path
            d="m 53.250303,20.357218 c 0,3.195967 2.717428,4.17014 6.084298,4.90504 2.63198,0.546903 4.58032,0.957081 4.58032,3.076332 0,1.691984 -1.40144,3.025062 -4.25559,3.025062 -2.61488,0 -4.05051,-1.247625 -4.289777,-2.888336 h -2.461066 c 0,3.076333 2.631973,5.041768 6.545753,5.041768 4.0676,0 6.95593,-1.931254 6.95593,-5.469035 0,-3.520691 -2.90543,-4.358138 -6.23812,-4.973405 -2.17052,-0.427267 -4.44359,-0.922899 -4.44359,-2.990878 0,-1.914163 1.6578,-2.888334 3.89669,-2.888334 2.97379,0 3.87959,1.726164 3.96505,3.127604 h 2.37561 c 0,-2.80288 -2.01671,-5.281037 -6.23812,-5.281037 -3.40106,0 -6.477388,1.64071 -6.477388,5.315219 z"
            style="font-weight:bold;font-size:16px;font-family:'San Francisco Display';-inkscape-font-specification:'San Francisco Display Bold';text-align:center;text-anchor:middle;fill:#55565a;stroke-width:3.43237;stroke-linecap:round"
            id="path6252"/>
        <path
            d="m 82.680551,33.517084 c 3.8796,0 6.20394,-2.170524 6.87047,-5.041768 h -2.54651 c -0.564,1.709074 -1.98253,2.871244 -4.23851,2.871244 -3.11051,0 -4.92213,-2.443974 -4.92213,-6.084302 v -0.358904 h 11.96352 v -1.572347 c 0,-4.973405 -2.66616,-8.289008 -7.24647,-8.289008 -4.64869,0 -7.24648,3.349784 -7.24648,8.083919 v 2.050887 c 0,5.058858 2.7687,8.340279 7.36611,8.340279 z M 77.843871,22.73283 v -0.05128 c 0,-3.093424 1.8458,-5.469036 4.71705,-5.469036 2.83706,0 4.71704,2.358521 4.71704,5.469036 v 0.05128 z"
            style="font-weight:bold;font-size:16px;font-family:'San Francisco Display';-inkscape-font-specification:'San Francisco Display Bold';text-align:center;text-anchor:middle;fill:#55565a;stroke-width:3.43237;stroke-linecap:round"
            id="path6256"/>
        <path
            d="m 91.311371,33.226541 h 2.51234 V 21.79284 c 0,-2.78579 1.76035,-4.443592 4.15305,-4.443592 2.563609,0 4.084679,1.589439 4.084679,4.443592 v 11.433701 h 2.51234 V 21.79284 c 0,-2.529429 1.4869,-4.443592 4.20432,-4.443592 2.66616,0 4.05051,1.760346 4.05051,4.17014 v 11.707153 h 2.51234 V 21.057938 c 0,-3.725781 -2.27307,-6.015939 -6.01594,-6.015939 -2.97379,0 -4.83668,1.418531 -5.50322,2.956697 h -0.10253 c -0.70072,-1.777436 -2.37562,-2.956697 -5.212679,-2.956697 -2.40979,0 -3.98214,1.298896 -4.56322,2.529429 h -0.11965 v -2.238887 h -2.51234 z"
            style="font-weight:bold;font-size:16px;font-family:'San Francisco Display';-inkscape-font-specification:'San Francisco Display Bold';text-align:center;text-anchor:middle;fill:#55565a;stroke-width:3.43237;stroke-linecap:round"
            id="path6258"/>
        <path
            d="m 127.61209,30.902201 h 0.0684 v 2.32434 h 2.44397 V 20.784486 c 0,-3.674508 -2.70033,-5.742487 -6.42611,-5.742487 -4.15305,0 -6.2894,2.170523 -6.49448,5.281037 h 2.37561 c 0.20509,-1.897071 1.55525,-3.110514 4.01632,-3.110514 2.54652,0 4.01632,1.350168 4.01632,3.862507 v 1.931253 h -4.87086 c -4.08468,0.01706 -6.23811,1.999616 -6.23811,5.093038 0,3.281421 2.37561,5.417764 5.84503,5.417764 2.73452,0 4.40941,-1.179262 5.26394,-2.614883 z m -4.66577,0.444359 c -2.0167,0 -3.84541,-1.076715 -3.84541,-3.298511 0,-1.743255 1.1109,-2.99088 3.72578,-2.99088 h 4.7854 v 2.204706 c 0,2.409793 -1.99961,4.084685 -4.66577,4.084685 z"
            style="font-weight:bold;font-size:16px;font-family:'San Francisco Display';-inkscape-font-specification:'San Francisco Display Bold';text-align:center;text-anchor:middle;fill:#55565a;stroke-width:3.43237;stroke-linecap:round"
            id="path6260"/>
    </g>
    <g
        id="g342"
        transform="matrix(1.3966507,0,0,1.3966507,90.841171,-7.0632494)">
        <path
            d="m 40.02207,30.032247 q 0,-0.016 0.064,-0.096 0.08,-0.096 0.16,-0.224 0.096,-0.128 0.16,-0.272 0.064,-0.16 0.064,-0.32 -0.016,-0.112 -0.128,-0.192 -0.096,-0.08 -0.24,-0.16 -0.144,-0.08 -0.32,-0.192 -0.176,-0.112 -0.336,-0.272 h -0.48 q -0.032,0.256 -0.08,0.48 -0.032,0.224 -0.032,0.448 0,0.16 0.032,0.304 0.032,0.128 0.112,0.288 0.112,0.176 0.24,0.496 0.128,0.32 0.128,0.592 0,0.176 -0.096,0.288 -0.08,0.096 -0.336,0.096 -0.272,-0.032 -0.48,-0.176 -0.208,-0.16 -0.352,-0.384 -0.144,-0.224 -0.224,-0.496 -0.064,-0.288 -0.064,-0.56 0,-0.192 0.032,-0.368 0.032,-0.176 0.064,-0.368 0.032,-0.208 0.064,-0.464 0.032,-0.256 0.032,-0.608 -0.096,0.016 -0.208,0.016 -0.096,0 -0.176,0 -0.544,0 -0.912,-0.16 -0.352,-0.16 -0.656,-0.528 -0.16,-0.192 -0.32,-0.448 -0.16,-0.256 -0.336,-0.496 -0.16,-0.256 -0.352,-0.496 -0.176,-0.24 -0.384,-0.416 -0.032,0.016 -0.032,0.144 0,0.112 -0.016,0.208 0,0.128 -0.032,0.192 -0.032,0.064 -0.032,0.112 0,0.032 0.048,0.096 0.064,0.048 0.096,0.048 l 0.08,0.896 q 0,0.496 -0.128,0.928 -0.112,0.432 -0.112,0.912 0,0.256 0.016,0.496 0.032,0.24 0.064,0.496 0.032,0.176 0.112,0.528 0.096,0.336 0.096,0.64 0,0.224 -0.08,0.384 -0.08,0.144 -0.304,0.144 -0.176,0 -0.304,-0.192 -0.128,-0.208 -0.224,-0.48 -0.096,-0.288 -0.16,-0.592 -0.048,-0.304 -0.064,-0.528 0,-0.128 0,-0.352 0.016,-0.224 0.016,-0.448 0.016,-0.224 0.016,-0.4 0.016,-0.192 0.016,-0.272 -0.272,0 -0.48,0.224 -0.192,0.208 -0.192,0.896 0,0.656 0.096,1.312 0.112,0.64 0.112,1.248 0,0.16 -0.048,0.32 -0.032,0.176 -0.096,0.32 -0.064,0.144 -0.16,0.24 -0.096,0.096 -0.208,0.096 -0.128,0 -0.272,-0.128 -0.144,-0.128 -0.256,-0.32 -0.112,-0.192 -0.192,-0.416 -0.064,-0.224 -0.064,-0.432 0,-0.208 0.032,-0.464 0.032,-0.272 0.08,-0.512 0.048,-0.24 0.08,-0.416 0.048,-0.176 0.08,-0.24 0.016,-0.048 0.048,-0.224 0.032,-0.192 0.048,-0.384 0.016,-0.208 0.032,-0.384 0.016,-0.176 0.016,-0.224 0,-0.08 -0.016,-0.24 -0.016,-0.176 -0.048,-0.368 -0.016,-0.192 -0.048,-0.368 -0.016,-0.176 -0.032,-0.256 -0.224,-0.128 -0.464,-0.256 -0.24,-0.144 -0.384,-0.384 -0.096,-0.16 -0.144,-0.336 -0.048,-0.176 -0.08,-0.32 -0.032,-0.16 -0.048,-0.256 -0.016,-0.096 -0.032,-0.096 v -9.008 q 0.016,-0.032 0.032,-0.16 0.016,-0.128 0.032,-0.272 0.032,-0.144 0.08,-0.272 0.064,-0.128 0.144,-0.16 l 0.448,-0.032 q 0.528,-0.048 0.944,-0.08 0.432,-0.032 0.832,-0.048 0.416,-0.032 0.832,-0.048 0.432,-0.016 0.976,-0.016 h 1.584 q 0.16,0.24 0.416,0.32 0.256,0.08 0.528,0.128 0.288,0.048 0.56,0.112 0.288,0.048 0.512,0.24 0.016,0.016 0.016,0.032 0.016,0.016 0.048,0.032 0.112,0.112 0.32,0.304 0.224,0.192 0.448,0.4 0.224,0.208 0.4,0.4 0.192,0.176 0.272,0.256 0.096,0.112 0.16,0.352 0.08,0.224 0.128,0.496 0.048,0.256 0.064,0.496 0.032,0.224 0.032,0.336 0,0.32 -0.064,0.56 -0.064,0.24 -0.16,0.48 -0.08,0.224 -0.192,0.464 -0.096,0.224 -0.176,0.512 -0.032,0.112 -0.064,0.384 -0.032,0.256 -0.032,0.96 0,0.336 -0.112,0.528 -0.096,0.176 -0.432,0.176 -0.128,0 -0.224,-0.08 -0.08,-0.096 -0.144,-0.192 -0.048,-0.112 -0.112,-0.192 -0.048,-0.096 -0.112,-0.096 -0.016,0 -0.08,0.112 -0.064,0.112 -0.176,0.208 -0.112,0.112 -0.24,0.176 -0.112,0.064 -0.144,0.096 0.032,0.144 0.08,0.288 0.048,0.144 0.128,0.304 0.128,0.256 0.432,0.512 0.304,0.24 0.496,0.512 0.208,0.272 0.304,0.544 0.096,0.272 0.32,0.512 0.352,0.416 0.64,0.736 0.304,0.304 0.48,0.624 0.112,0.224 0.16,0.432 0.048,0.208 0.08,0.416 0.032,0.192 0.064,0.416 0.048,0.224 0.128,0.464 0,0.016 0.048,0.08 0.048,0.064 0.096,0.144 0.064,0.064 0.096,0.128 0.048,0.064 0.048,0.08 0,0.016 -0.032,0.064 -0.032,0.032 -0.08,0.16 -0.048,0.128 -0.112,0.384 -0.048,0.24 -0.096,0.64 -0.032,0.176 -0.048,0.432 0,0.24 -0.048,0.48 -0.032,0.256 -0.144,0.48 -0.096,0.24 -0.304,0.384 -0.256,-0.096 -0.48,-0.224 -0.208,-0.112 -0.368,-0.368 -0.144,-0.256 -0.24,-0.688 -0.08,-0.448 -0.08,-1.184 z m -5.328,-9.072 q 0,0.112 0.048,0.336 0.064,0.208 0.096,0.24 0.048,0.016 0.096,0.016 h 0.144 q 0.304,0 0.64,-0.064 0.352,-0.08 0.64,-0.24 0.304,-0.16 0.512,-0.416 0.224,-0.256 0.272,-0.64 0,-0.128 -0.096,-0.272 -0.08,-0.16 -0.256,-0.272 -0.16,-0.128 -0.384,-0.208 -0.224,-0.08 -0.48,-0.08 0.144,0.192 0.144,0.464 0,0.32 -0.144,0.544 -0.128,0.208 -0.384,0.208 -0.112,0 -0.224,-0.112 -0.096,-0.112 -0.176,-0.448 -0.048,-0.256 -0.048,-0.384 0.016,-0.128 -0.16,-0.176 -0.08,0.032 -0.128,0.256 -0.048,0.224 -0.08,0.496 -0.016,0.272 -0.032,0.496 0,0.224 0,0.256 z"
            style="font-weight:bold;font-size:16px;font-family:'Pieces NFI';-inkscape-font-specification:'Pieces NFI Bold';text-align:center;text-anchor:middle;fill:#55565a;stroke:none;stroke-width:1.569;stroke-linecap:round"
            id="path6263"/>
        <path
            d="m 49.062078,27.440247 q -0.176,0.192 -0.256,0.464 -0.064,0.256 -0.064,0.528 0,0.192 0.016,0.384 0.032,0.192 0.064,0.384 -0.032,0.128 -0.144,0.24 -0.112,0.096 -0.208,0.096 -0.16,0 -0.256,-0.128 -0.08,-0.144 -0.144,-0.304 -0.048,-0.176 -0.096,-0.304 -0.048,-0.144 -0.112,-0.144 -0.192,0 -0.256,0.368 -0.064,0.368 -0.064,0.8 0,0.416 0.16,0.8 0.16,0.368 0.16,0.768 0,0.192 -0.064,0.464 -0.064,0.272 -0.176,0.528 -0.096,0.272 -0.256,0.448 -0.16,0.192 -0.352,0.192 -0.224,0 -0.352,-0.192 -0.112,-0.176 -0.176,-0.416 -0.064,-0.224 -0.08,-0.448 -0.016,-0.224 -0.016,-0.32 l 0.608,-2.864 q 0,-0.176 -0.128,-0.272 -0.112,-0.112 -0.528,-0.192 -0.16,-0.032 -0.272,-0.096 -0.112,-0.064 -0.24,-0.176 -0.192,-0.992 -0.288,-2.016 -0.08,-1.024 -0.128,-2.048 -0.032,-1.04 -0.064,-2.08 -0.016,-1.04 -0.08,-2.064 -0.016,-0.08 -0.016,-0.128 0,-0.048 0,-0.096 0,-0.08 -0.016,-0.16 -0.016,-0.08 -0.112,-0.208 -0.048,0.08 -0.128,0.336 -0.08,0.24 -0.192,0.496 -0.112,0.256 -0.256,0.464 -0.128,0.192 -0.304,0.192 -0.208,-0.048 -0.272,-0.24 -0.064,-0.192 -0.112,-0.4 -0.032,-0.224 -0.08,-0.384 -0.048,-0.176 -0.208,-0.176 -0.096,0 -0.128,0.256 -0.032,0.24 -0.096,0.544 -0.048,0.288 -0.16,0.544 -0.096,0.24 -0.32,0.24 -0.176,0 -0.32,-0.16 -0.144,-0.176 -0.192,-0.368 v -0.896 q 0,-0.08 0,-0.208 0,-0.144 0,-0.288 0.016,-0.144 0.016,-0.256 0,-0.112 0,-0.144 0.016,-0.224 0.032,-0.56 0.016,-0.352 0.032,-0.688 0.032,-0.336 0.048,-0.576 0.032,-0.256 0.032,-0.272 l 0.432,-0.72 q 0,-0.016 0.32,-0.032 0.336,-0.016 0.848,-0.032 0.512,-0.016 1.152,-0.032 0.64,-0.032 1.296,-0.032 0.656,-0.016 1.248,-0.016 0.608,-0.016 1.04,-0.016 0.16,0 0.592,0.016 0.432,0.016 0.912,0.048 0.48,0.016 0.912,0.048 0.432,0.032 0.608,0.048 0.112,0.208 0.176,0.384 0.064,0.176 0.08,0.368 0.032,0.176 0.032,0.4 0.016,0.208 0.016,0.464 0,0.272 -0.048,0.608 -0.032,0.336 -0.08,0.592 -0.08,0.256 -0.144,0.448 -0.048,0.176 -0.048,0.4 0.016,0.256 0.064,0.624 0.064,0.368 0.096,0.48 -0.032,0.16 -0.24,0.208 -0.208,0.032 -0.288,0.032 -0.272,0 -0.368,-0.144 -0.08,-0.144 -0.112,-0.336 -0.032,-0.192 -0.08,-0.384 -0.048,-0.192 -0.208,-0.288 -0.224,-0.112 -0.352,-0.112 -0.128,0 -0.208,-0.064 -0.16,-0.112 -0.24,-0.288 -0.064,-0.192 -0.352,-0.416 -0.176,0.224 -0.256,0.528 -0.064,0.288 -0.096,0.624 -0.032,0.32 -0.048,0.64 0,0.32 -0.016,0.592 0,0.048 -0.032,0.24 -0.016,0.192 -0.032,0.64 -0.016,0.432 -0.032,1.2 -0.016,0.768 -0.016,1.968 z"
            style="font-weight:bold;font-size:16px;font-family:'Pieces NFI';-inkscape-font-specification:'Pieces NFI Bold';text-align:center;text-anchor:middle;fill:#55565a;stroke:none;stroke-width:1.569;stroke-linecap:round"
            id="path6265"/>
    </g>
    <path
        id="circle6515"
        style="opacity:1;fill:#55565a;fill-opacity:1;stroke:none;stroke-width:2.02704;stroke-linecap:round;stroke-dasharray:none;stroke-dashoffset:0;stroke-opacity:1"
        d="M 50.250379,3.2563624e-7 A 5.5591569,5.5591569 0 0 0 44.691785,5.5585943 5.5591569,5.5591569 0 0 0 50.250379,11.117188 5.5591569,5.5591569 0 0 0 55.810921,5.5585943 5.5591569,5.5591569 0 0 0 50.250379,3.2563624e-7 Z m 0,2.77929697436376 a 2.7795784,2.7795784 0 0 1 2.779296,2.779297 2.7795784,2.7795784 0 0 1 -2.779296,2.779297 2.7795784,2.7795784 0 0 1 -2.779297,-2.779297 2.7795784,2.7795784 0 0 1 2.779297,-2.779297 z"/>
</svg>
